<svg id="Layer_1" data-name="Layer 1" xmlns="http://www.w3.org/2000/svg" viewBox="0 0 1024 1024"><defs><style>.cls-1{fill:#e61b72;}.cls-2,.cls-4{fill:#fff;}.cls-2{opacity:0.7;}.cls-3{fill:#d30065;}.cls-5{fill:#846541;}.cls-6{fill:#e8b2c8;}.cls-7{fill:#98794d;}.cls-8{fill:#b69f7e;}.cls-9{fill:#876844;}.cls-10{fill:#dda6c0;}.cls-11{fill:#1d1d1b;}.cls-12{fill:#333;}.cls-13{fill:#575756;}.cls-14{fill:#bc0063;}.cls-15{fill:#7b5a3c;}</style></defs><path class="cls-1" d="M408.19,1017H953.44c49.58,0,80.46-53.81,55.41-96.61L937.54,798.48c-116.37-.1-200.73,25.09-260.79,52.63-43,19.69-71.73,39.81-122.06,46.75-60.43,8.33-118.06-7-169.61-32.69l-32.29,55.2C327.74,963.17,358.6,1017,408.19,1017Z"/><path class="cls-2" d="M385.08,865.17c51.55,25.65,109.18,41,169.61,32.69,50.33-6.94,79.11-27.06,122.06-46.75,60.06-27.54,144.42-52.73,260.79-52.63L750.66,479.13V270.28H611V479.15Z"/><path class="cls-3" d="M385.08,865.17c51.55,25.65,109.18,41,169.61,32.69,41.73-5.76,68.66-20.56,101.12-36.68a487,487,0,0,0-242.44-44.34Z"/><rect class="cls-4" x="601.42" y="254.46" width="158.79" height="31.65" rx="8.03" transform="translate(1361.64 540.57) rotate(-180)"/><path class="cls-5" d="M554.64,288.65c2.36,7.78-31.61,27.09-62.89,37.48a223.23,223.23,0,0,1-81.95,10.79,197.46,197.46,0,0,1-12.19-17.73c-4.56-7.46-6-10.94-10.23-17.55A145.69,145.69,0,0,0,374,283.85a629.87,629.87,0,0,0,107.43,5.36C525.26,287.65,552.65,282.07,554.64,288.65Z"/><path class="cls-6" d="M429.11,533.61q-4.14,5.45-8.34,10.84c-2.79,3.6-5.49,7.27-8.23,10.9-5.47,7.27-10.88,14.57-16.09,22-10.47,14.83-20.55,29.86-29.79,45.32-4.54,7.77-9.06,15.53-13.11,23.51-2.11,4-4,8-6,12s-3.78,8.06-5.44,12.17c-6.93,16.29-12.26,33.14-14.61,50.06a111.69,111.69,0,0,0-.81,25.13c.07,1,.16,2.06.31,3.08l.37,3.06c.38,2,.64,4,1.13,6A78.9,78.9,0,0,0,332,769.33c5.72,15.13,16.16,28.88,27.5,42.86,5.68,7,11.53,14.2,17.15,21.9,2.8,3.85,5.52,7.86,8.12,12a146.77,146.77,0,0,1,7.17,13.09,109,109,0,0,1,5.52,14.28c.4,1.22.69,2.49,1,3.73s.66,2.5.9,3.77l.78,3.82.56,3.85c.21,1.28.33,2.57.43,3.87s.24,2.58.3,3.88l.1,3.88c0,.63,0,1.31,0,1.91l-.06,1.8-.14,3.76-.07,1-.06.52-.11,1-.25,2c-.38,2.55-.81,5-1.34,7.5s-1.14,4.88-1.76,7.3-1.37,4.79-2.21,7.13A138.21,138.21,0,0,1,390,948a126.51,126.51,0,0,1-15.68,25.55l-4.9,5.74c-1.74,1.9-3.57,3.78-5.47,5.54a98.15,98.15,0,0,1-12.12,9.59,115.3,115.3,0,0,1-27,13.27,164.12,164.12,0,0,1-28.41,6.87A215.41,215.41,0,0,1,267.9,1017c-9.48.18-18.9-.14-28.25-.84s-18.62-1.9-27.82-3.32-18.31-3.2-27.35-5.23-18-4.27-26.88-6.8c-17.76-5-35.2-10.9-52.35-17.46s-34-13.85-50.47-21.77q-12.37-5.92-24.53-12.25c-8.06-4.3-16.1-8.61-24-13.2,8.49,3.36,16.93,6.76,25.46,10s17,6.46,25.56,9.48c17.13,6,34.32,11.77,51.67,16.84s34.81,9.63,52.38,13.41c8.79,1.86,17.59,3.59,26.42,5.05s17.67,2.67,26.52,3.65a331,331,0,0,0,52.85,1.77c17.39-1,34.6-3.71,50.21-9.53A97.63,97.63,0,0,0,339,975.62a75.59,75.59,0,0,0,9.16-7.48c1.42-1.35,2.74-2.76,4.05-4.23l3.89-4.71a104,104,0,0,0,12.69-21,114.64,114.64,0,0,0,4.5-11.5c.69-2,1.21-3.94,1.8-5.91s1-4,1.43-6,.79-4,1.09-5.93l.19-1.42.08-.66,0-.32c0-.08,0-.11,0,0v.14l.14-3.07.07-1.61c0-.54,0-1,0-1.5l-.05-2.94c0-1-.15-2-.22-2.93s-.14-2-.3-2.91l-.41-2.91-.58-2.87a28.42,28.42,0,0,0-.67-2.87c-.26-.94-.46-1.91-.77-2.85a95.29,95.29,0,0,0-4.23-11.2c-1.7-3.68-3.65-7.32-5.77-10.93s-4.52-7.16-7-10.7c-5-7.09-10.56-14.1-16.13-21.4s-11.27-14.81-16.44-23c-1.32-2-2.54-4.15-3.79-6.25s-2.39-4.3-3.46-6.55-2.12-4.52-3.14-6.8-1.89-4.67-2.66-7.09a98.42,98.42,0,0,1-3.76-14.65c-.51-2.46-.76-5-1.11-7.44s-.5-5-.53-7.45a130.55,130.55,0,0,1,2.25-29.27A176.11,176.11,0,0,1,317,689.78a225.17,225.17,0,0,1,11.19-25.9c2-4.22,4.32-8.28,6.52-12.38s4.58-8.09,7.07-12c4.82-7.92,10-15.56,15.29-23.11q16.11-22.47,34.32-43.06c3.05-3.42,6-6.87,9.16-10.21s6.14-6.78,9.32-10,6.33-6.59,9.55-9.82S425.85,536.8,429.11,533.61Z"/><path class="cls-7" d="M505.48,651.32C481.94,684,370.51,694,322,637c-43.2-50.77-23.58-134.62-19.79-150.55,7.56-31.79,21.46-55.63,28.12-109a405.23,405.23,0,0,0,3.11-50.19q27.6,41.61,31.86,39.34,2.26-1.2-2.08-14.82a523.81,523.81,0,0,1,31.23-156,47,47,0,0,0-1.13,17.3,48.53,48.53,0,0,0,7.35,19.91c17.75,28.51,86.44,79.26,93.13,108.7,2.92,12.81.32,18.27,5.5,39.67a255.63,255.63,0,0,0,14.46,42.6c6.55,14.88,8.37,26.7,7.74,41.45-.45,10.4-2.71,17.73-4.53,23.95-15.41,52.83-23.12,79.24-14.5,100.77,5.2,13,12.63,16.79,13.18,30.7A53.75,53.75,0,0,1,505.48,651.32Z"/><path class="cls-8" d="M448.46,606.05c-38.77-51.43-28.72-111.14-26.6-122.48.29-3.42,2.37-24.52,20.7-38.15,3-2.25,15.78-11.14,31.3-9.86,21.9,1.81,42.26,23.59,46.76,54q-2.36,62.6-4.72,125.19a48.34,48.34,0,0,1-2.9,23.94l-7.52,12.67A148,148,0,0,1,448.46,606.05Z"/><path class="cls-6" d="M487.88,634.43h49a5.62,5.62,0,0,1,5.62,5.62v1.7a.6.6,0,0,1-.6.6H484.7a1.76,1.76,0,0,1-1.76-1.76v-1.22a4.94,4.94,0,0,1,4.94-4.94Z" transform="translate(-296.49 763.23) rotate(-60)"/><ellipse class="cls-9" cx="280.38" cy="96.44" rx="78.69" ry="97.55" transform="translate(8.65 215.07) rotate(-42.57)"/><path class="cls-7" d="M497.68,157.93c-14.32,27-65.29,56.95-81.1,69.06-27,20.7-53.12,65.15-46.91,170.15l-50.31,30.59a332.1,332.1,0,0,0,14.11-100.49,333.47,333.47,0,0,0-28-128.6,303.39,303.39,0,0,0-3.82-46.33,302.51,302.51,0,0,0-13.85-54c30.51-22.78,57.29-27.34,71.37-28.4,24.35-1.84,46.62,4.06,56,6.56,25.6,6.78,37.31,15.44,63.6,17.53a138.51,138.51,0,0,0,29.11-.78l3.87,5.91-.63,16.07A127,127,0,0,1,497.68,157.93Z"/><rect class="cls-10" x="496.42" y="91.92" width="16.57" height="12.7" rx="6.35" transform="translate(15.82 257.54) rotate(-29.06)"/><circle class="cls-11" cx="387.34" cy="114.24" r="8.4"/><circle class="cls-4" cx="393.11" cy="115.61" r="1.43"/><path class="cls-4" d="M426.82,128.8a91.83,91.83,0,0,0-14,9.31,78.29,78.29,0,0,0-11.69,11.83A77.13,77.13,0,0,0,392.28,164a89.91,89.91,0,0,0-5.87,15.73,57.26,57.26,0,0,1,4.2-16.49,62.91,62.91,0,0,1,8.7-14.76,68.43,68.43,0,0,1,5.81-6.34,66.36,66.36,0,0,1,6.6-5.48A58.09,58.09,0,0,1,426.82,128.8Z"/><path class="cls-4" d="M430,131a58.28,58.28,0,0,0-7.88,8.48,46,46,0,0,0-5.63,9.87,39,39,0,0,0-1.85,5.36,46,46,0,0,0-1.16,5.58,55.6,55.6,0,0,0-.39,11.56,34.32,34.32,0,0,1,1.24-23.4,38.65,38.65,0,0,1,2.76-5.35,40.26,40.26,0,0,1,3.62-4.78A33.35,33.35,0,0,1,430,131Z"/><path class="cls-4" d="M434.5,132.81A42.07,42.07,0,0,0,429,142.88a33.9,33.9,0,0,0-2.14,11,33,33,0,0,0,.36,5.61,36.62,36.62,0,0,0,1.2,5.53A49.41,49.41,0,0,0,433,175.57a30.14,30.14,0,0,1-6.36-9.94,30.72,30.72,0,0,1-2.17-11.79c.08-1,.12-2,.25-3s.27-2,.54-3a28,28,0,0,1,2-5.68A27.54,27.54,0,0,1,434.5,132.81Z"/><path class="cls-7" d="M269.05,47c-3.42-.68-60-10.83-90.17,28.67-16.45,21.53-15.84,45.77-15.39,52.8,2.24,35,27.49,62.35,54.62,74.66,42.8,19.43,82.84-2,87.34-4.45,1.58-18.68,3.84-38.46,7-59.21,3.31-21.79,7.23-42.28,11.49-61.39C316.06,69.75,297.56,52.66,269.05,47Z"/><path class="cls-6" d="M305.21,102.77a76.83,76.83,0,0,0-6.08,63.1c-34.51,14.24-68.18,2.86-78.32-18.42-6.37-13.36-4.68-33.14,7-45.81,13.46-14.65,33.92-13,42.67-12.19A72.23,72.23,0,0,1,305.21,102.77Z"/><path class="cls-8" d="M368.73,294.88a139.8,139.8,0,0,1-.89-19,54.94,54.94,0,0,1,1.33-13c2.73-12.15,12.67-24.93,12.67-24.93,7.79-10,17.26-18.37,29.24-26.28,13.7-9,22-11.73,34.34-17.66a257.53,257.53,0,0,0,49.44-31.37c-.95,1.61-2.49,4.1-4.59,7-4.61,6.31-9.9,11.7-31,27.31-13.34,9.85-20,14.78-23.92,17-6,3.47-8,4.11-9.86,6.73-6.85,9.63,1.91,27.22,6.24,35.19,22.23,40.93,49.52,50.33,68.12,84.22,22.13,40.32,21.87,87.21,21.73,125.26,0,10-.49,18.33-.91,24.17l-98.76-5.95a235.88,235.88,0,0,0-4.87-72C403.05,350.23,374.83,344.17,368.73,294.88Z"/><path class="cls-12" d="M495.94,264.05h0a38.22,38.22,0,0,1,38.22,38.22V444.73a0,0,0,0,1,0,0H457.72a0,0,0,0,1,0,0V302.27A38.22,38.22,0,0,1,495.94,264.05Z" transform="translate(727.68 918.18) rotate(-147.89)"/><rect class="cls-13" x="491.32" y="260.34" width="115.37" height="18.98" rx="3.44" transform="translate(870.63 790.19) rotate(-147.89)"/><path class="cls-1" d="M589.48,146.28l53.06,33.55,46.22-73.68a31.39,31.39,0,0,0-.31-33.87l6-9.64a13.11,13.11,0,1,0-22.21-14l-6.06,9.66a31.37,31.37,0,0,0-30.64,14.44Z"/><path class="cls-2" d="M527.47,245.11l53.16,33.36,61.91-98.64-53.06-33.55Z"/><path class="cls-7" d="M570.07,299.57c3.61,8.91-38.18,36.66-77.24,53.45a312.23,312.23,0,0,1-103.62,24.46,220.46,220.46,0,0,1-16.92-19.32c-6.39-8.2-8.52-12.13-14.41-19.38a163.18,163.18,0,0,0-18.43-19.21,865.25,865.25,0,0,0,137.35-8.92C532.53,302.56,567,292.05,570.07,299.57Z"/><path class="cls-14" d="M879.07,982a5.48,5.48,0,0,1-1.19-3.4h0A9.88,9.88,0,0,1,880,973h0a15,15,0,0,1,4.47-4.11h0a6.92,6.92,0,0,1,3.24-1h0a3.18,3.18,0,0,1,.62,0h0a6,6,0,0,1,3.62,1.8h0c.15.17.3.34.43.51h0c.09-1.09.21-2.44.33-3.84h0c.27-3.3.55-7,.53-8.06h0a.93.93,0,0,0,0-.2h0a8.09,8.09,0,0,1-.3-1.83h0a2.07,2.07,0,0,1,.25-1.11h0a1.33,1.33,0,0,1,1.17-.67h0a2.74,2.74,0,0,1,2.77,2.71h0a3,3,0,0,1-.15.93h0v0h0a.58.58,0,0,1,0,.1h0c0,.1,0,.24-.07.42h0c0,.34-.11.82-.17,1.39h0c-.13,1.14-.27,2.66-.41,4.33h0c-.26,3.05-.49,6.6-.57,9.25h0a2.89,2.89,0,0,1,.9.42h0a1.66,1.66,0,0,1,.66.92h0a3.6,3.6,0,0,1,.12.78h0a1.71,1.71,0,0,1-.35,1.09h0a1.89,1.89,0,0,1-.79.6h0c-.33.15-.66.26-1,.38h0a13,13,0,0,1,.18,1.83h0a5.11,5.11,0,0,1-.08,1h0a1.88,1.88,0,0,1-.53,1h0a1.32,1.32,0,0,1-.88.34h-.18a2.8,2.8,0,0,1-1.38-.48h0a2,2,0,0,1-.74-1h0c-.06-.16-.1-.32-.14-.47h0c-.57.38-1.35.86-2.25,1.34h0a15.34,15.34,0,0,1-6.58,2.13h-.05a4.32,4.32,0,0,1-3.57-1.58Zm4.64-7.94c-1.32,1.55-2.23,3.52-2.19,4.64h0a1.21,1.21,0,0,0,.29.87h0a1.4,1.4,0,0,0,1.09.38h0a9.23,9.23,0,0,0,3.81-1.38h0c1.34-.74,2.78-1.68,4.14-2.53h0c-.06-.29-.15-.67-.27-1.08h0a8.24,8.24,0,0,0-1.27-2.73h0a2.12,2.12,0,0,0-1.2-.82h0l-.31,0h-.06c-1.08,0-2.76,1.12-4,2.67Zm17.38,5.53a15.85,15.85,0,0,1-2.06-4.88h0a40.52,40.52,0,0,1-1.16-7.87h0c0-.1,0-.2,0-.31h0a2.17,2.17,0,0,1,.39-1.35h0a1.52,1.52,0,0,1,1.18-.59h0a1.55,1.55,0,0,1,.31,0h0a2.09,2.09,0,0,1,1.57,1h0a2.5,2.5,0,0,1,.3,1.19h0v1h0a33.49,33.49,0,0,0,.57,6.16h0a8.07,8.07,0,0,0,1.33,3.39h0c.33.38.56.47.8.47h0a1.26,1.26,0,0,0,.53-.15h0a4,4,0,0,0,1.63-1.89h0a11.94,11.94,0,0,0,.89-3.07h0a29.59,29.59,0,0,0,.32-4.78h0a.53.53,0,0,1,0-.13h0a2.47,2.47,0,0,1,.28-1.26h0a1.77,1.77,0,0,1,1.61-.85h.13a1.64,1.64,0,0,1,1.13.46h0a2.18,2.18,0,0,1,.53.8h0a3.73,3.73,0,0,1,.25,1h0v.15c-.05.46-.15,2.39-.49,4.6h0a19.75,19.75,0,0,1-2,6.67h0a4.76,4.76,0,0,1-3.27,2.55h0a4.87,4.87,0,0,1-.65.05h0a4.89,4.89,0,0,1-4-2.38ZM916.58,983h-.33a2.16,2.16,0,0,1-1.49-.84h0a1.92,1.92,0,0,1-.33-.8h0l-.2,0h0a1.8,1.8,0,0,1-1.13-.84h0l0,0,0,0a.9.9,0,0,1-.06-.24h0s0-.07,0-.11h0c0-.07,0-.15,0-.25h0c0-.21,0-.48,0-.81h0c0-.67-.06-1.59-.07-2.63h0a71.81,71.81,0,0,1,.25-7.27h0a2.35,2.35,0,0,1-.58-1.26h0v0a.61.61,0,0,1,0-.14h0a1.82,1.82,0,0,1,.53-1.22h0a3.22,3.22,0,0,1,.63-.53h0l.08-.37h0c.1-.46.23-1.1.36-1.85h0a28.8,28.8,0,0,0,.5-4.92h0a1.93,1.93,0,0,0,0-.24h0a3.9,3.9,0,0,0-.15-.68h0a4.94,4.94,0,0,1-.22-1.2h0a1.8,1.8,0,0,1,.37-1.15h0a1.83,1.83,0,0,1,1.25-.63H916a1.6,1.6,0,0,1,1,.41h0a2.87,2.87,0,0,1,.68.85h0a5.55,5.55,0,0,1,.64,2.53h0v.26h0A13.45,13.45,0,0,1,918,962h0c-.17.84-.38,1.78-.61,3.11h0a15,15,0,0,1,4.31.6h0a7.07,7.07,0,0,1,4.58,3.58h0a3.12,3.12,0,0,1,.31,1.33h0a6.33,6.33,0,0,1-1,3.14h0a20.5,20.5,0,0,1-2.28,3.05h0a58.51,58.51,0,0,1-4.63,4.53h0c-.26.24-.46.42-.49.46h0a2.48,2.48,0,0,0-.35.44h0a1.57,1.57,0,0,1-.54.57h0a1.26,1.26,0,0,1-.68.19h0Zm-.21-9a39.89,39.89,0,0,0,.28,4.37h0c.36-.29.8-.65,1.26-1.05h0a25.23,25.23,0,0,0,3.88-4.06h0a4.52,4.52,0,0,0,1-2.35h0a1,1,0,0,0-.11-.47h0a3,3,0,0,0-1.83-1.16h0a11.2,11.2,0,0,0-3.32-.46h0c-.24,0-.48,0-.71,0h0c0,.26-.1.59-.15,1h0a30.82,30.82,0,0,0-.32,3.4h0V974ZM930,983.88a2.46,2.46,0,0,1-1.34-.46h0a1.58,1.58,0,0,1-.59-.9h0a6.62,6.62,0,0,1-.19-1h0c-.1-.81-.14-1.85-.16-3.07h0c0-4.7.4-12,.67-16.19h0c.13-2.14.22-4,.3-5.39h0a16.34,16.34,0,0,1,.38-3.1h0a1.45,1.45,0,0,1,.36-.64h0a2,2,0,0,1,1.32-.59h0a2.4,2.4,0,0,1,1.68.84h0a1.84,1.84,0,0,1,.45.74h0a3,3,0,0,1,.12.91h0a35.13,35.13,0,0,1-.35,3.74h0c-.22,1.87-.53,4.54-.87,8.42h0c-.28,3-.39,6.11-.37,8.79h0c0,1.73.1,3.29.24,4.55h0v0c0,.16,0,.38,0,.62h0a5.81,5.81,0,0,1-.09,1.14h0a2.25,2.25,0,0,1-.57,1.2h0a1.46,1.46,0,0,1-1,.43h0Zm6-2.63.36-.76-.36.76a5.58,5.58,0,0,1-2.27-2.34h0a8.36,8.36,0,0,1-1-3.91h0a8.14,8.14,0,0,1,.61-3.17h0a18.27,18.27,0,0,1,3.16-5.48h0a5.71,5.71,0,0,1,3.55-2h0l.32,0h0a5.71,5.71,0,0,1,3.43,1.28h0a7.38,7.38,0,0,1,2.61,4.66h0a9.59,9.59,0,0,1,.15,1.58h0a9.65,9.65,0,0,1-3.08,7.06h0a9.09,9.09,0,0,1-5.77,2.68h0a3.82,3.82,0,0,1-1.68-.33Zm4.68-13.1a1.17,1.17,0,0,0-.27.1h0a4,4,0,0,0-1,.67h0a10.14,10.14,0,0,0-2.84,4.91h0a3.4,3.4,0,0,0-.14,1.09h0a4.67,4.67,0,0,0,.42,2h0a1.76,1.76,0,0,0,1,1h0a.78.78,0,0,0,.32,0h0a4.24,4.24,0,0,0,2.26-1.07h0a6.37,6.37,0,0,0,1.7-2h0v0a7.78,7.78,0,0,0,.91-3.41h0a4.41,4.41,0,0,0-.49-2h0a2.64,2.64,0,0,0-.68-1h0a1.55,1.55,0,0,0-.67-.31h0l-.4.06h0l0,0Zm-.22-.19.06-.64-.06.64Zm-75.88,6.12a13.61,13.61,0,0,1,2.44-2.9,16,16,0,0,1,6.69-3.2l1.18.1a5.06,5.06,0,0,1,2.63,1.22,3,3,0,0,1,.63,3,5.12,5.12,0,0,1-2.48,3.31,11.76,11.76,0,0,1-4.47,1.64c-1.61.24-2.5.53-2.66.87s0,.77.61,1.27,1.95,1,4.11,1.36a18.52,18.52,0,0,0,5.41.32,19.25,19.25,0,0,0,3.52-.72c.92-.29,1.91.67,2.42.59s.87.24,1.1.92c-1,1.15-2.41.8-3.53,1.27a19.55,19.55,0,0,1-4.14,1.1,23.74,23.74,0,0,1-5.88.13l-1.37-.17a16.93,16.93,0,0,1-4.88-1.63,6,6,0,0,1-1.81-1.76,5.73,5.73,0,0,1-.69-2.73A10.08,10.08,0,0,1,864.53,974.08Zm3.72,1.2a13.13,13.13,0,0,0,4.39-1.41c.77-.53,1.14-1,1.1-1.57s-.62-.58-1.73-.17a6,6,0,0,0-2.37,1.38A18.54,18.54,0,0,0,868.25,975.28Z"/><path class="cls-14" d="M939.63,995.28a16.69,16.69,0,0,1-8.47-4h0a1.39,1.39,0,0,1-.46-1h0a.91.91,0,0,1,0-.23h0a2,2,0,0,1,.55-1.07h0a2.05,2.05,0,0,1,1.11-.55h0l.21,0h0a1.57,1.57,0,0,1,1.09.44h0a10.48,10.48,0,0,0,2.34,1.51h0a19.54,19.54,0,0,0,2.72,1.09h0a19.65,19.65,0,0,0,4.24.76h0q.71,0,1.41,0h0a16.36,16.36,0,0,0,2.87-.31h0a17,17,0,0,0,3.64-1.16h0a8.24,8.24,0,0,0,3.71-4.21h0a22.3,22.3,0,0,0,1.06-7h0a11.16,11.16,0,0,1-.75.95h0a8.31,8.31,0,0,1-1.56,1.4h0a6.14,6.14,0,0,1-2.38,1h0a3,3,0,0,1-.43,0h0a2.39,2.39,0,0,1-1.11-.24h0a3.66,3.66,0,0,1-1.18-.82h0a5.74,5.74,0,0,1-1.61-3.77h0c0-.13,0-.27,0-.41h0a10,10,0,0,1,.76-3.93h0a25.24,25.24,0,0,1,2-4h0c.19-.3.54-.79,1.07-1.48h0a15.87,15.87,0,0,1,1.92-2.06h0a10.59,10.59,0,0,1,2.39-1.69h0a3.8,3.8,0,0,1,1.71-.47h0a3.73,3.73,0,0,1,.94.12h0a1.47,1.47,0,0,1,.52.24h0a.61.61,0,0,1,.24.47h0a.34.34,0,0,1,0,.1h0a1.66,1.66,0,0,1-.42.82h.13a2.83,2.83,0,0,1,.57,0h0c1,.15,1.65.73,1.65,1.6h0v.15h0l-.36,7h0c-.12,2.35-.36,4.68-.61,7h0a25.86,25.86,0,0,1-1.18,5.88h0a11.15,11.15,0,0,1-1.18,2.5h0a10.63,10.63,0,0,1-3.25,3.11h0a16.2,16.2,0,0,1-4.28,1.86h0a20.64,20.64,0,0,1-4.85.69h0a23.35,23.35,0,0,1-4.79-.42Zm16.24-27.71a8.37,8.37,0,0,0-.75.8h0c-.25.31-.52.64-.79,1h0a10.86,10.86,0,0,0-1.31,2h0c-.34.68-.68,1.37-1,2.07h0a10.64,10.64,0,0,0-1.28,4.37h0v0h0a4.67,4.67,0,0,0,.17,1.23h0c.08.25.17.34.24.36h0l.05,0h0a.77.77,0,0,0,.21-.18h0a6.4,6.4,0,0,0,.65-.81h0a21.92,21.92,0,0,0,1.85-3.58h0a31.29,31.29,0,0,0,1.33-3.81h0c.35-1.27.71-2.54,1.07-3.8h0a5.79,5.79,0,0,0-.44.39Z"/><path class="cls-14" d="M963.85,982.51a8.78,8.78,0,0,1-2.83-2.58h0a1.3,1.3,0,0,1-.24-.73h0a1.36,1.36,0,0,1,.09-.52h0a2.37,2.37,0,0,1,.73-1h0a2.24,2.24,0,0,1,1.13-.49h.14a1.17,1.17,0,0,1,1,.52h0a6,6,0,0,0,1.7,1.54h0a1.25,1.25,0,0,0,.71.23h0a1.09,1.09,0,0,0,.81-.43h0l0-.07h0a1.6,1.6,0,0,1,.07-.19h0a2.24,2.24,0,0,0,.12-.82h0v0h0a3.85,3.85,0,0,0-.31-1.28h0a4.37,4.37,0,0,0-1.25-1.54h0c-.35-.28-.71-.54-1.09-.79h0a5,5,0,0,1-1.08-1h0a4,4,0,0,1-1-2.55h0a4.06,4.06,0,0,1,.06-.84h0a5.38,5.38,0,0,1,2.08-3.54h0a9.43,9.43,0,0,1,3.64-1.81h0a.9.9,0,0,1,.28,0h0a1.08,1.08,0,0,1,.84.36h0a1.27,1.27,0,0,1,.35.84h0a2.46,2.46,0,0,1,0,.26h0a2.2,2.2,0,0,1-1.36,1.67h0a6.18,6.18,0,0,0-1,.62h0a4.51,4.51,0,0,0-1,.94h0a1.94,1.94,0,0,0-.41,1h0a.28.28,0,0,0,0,.09h0a1.13,1.13,0,0,0,.5.82h0a13.17,13.17,0,0,0,1.2.92h0a6,6,0,0,1,1.21,1.09h0a12.32,12.32,0,0,1,1.23,1.74h0a5,5,0,0,1,.72,2.06h0a5.49,5.49,0,0,1,0,.7h0a6.16,6.16,0,0,1-.61,2.82h0a4.41,4.41,0,0,1-2.7,2.34h0a5.15,5.15,0,0,1-1.52.28h0a4.47,4.47,0,0,1-2.31-.61Zm3.49-3.42v0Zm-.1-.09-.07-.07.07.07Z"/><path class="cls-14" d="M960,958.38c.26-.41.55-.79,1.13-.73a.88.88,0,0,1,.81.94,1.79,1.79,0,0,1-.33.81l-1.49,2.34c-.26.4-.55.78-1.13.72a.87.87,0,0,1-.81-.94,1.93,1.93,0,0,1,.33-.8Z"/><path class="cls-14" d="M954.65,958c0-.48,0-1,.47-1.26a.85.85,0,0,1,1.2.26,1.84,1.84,0,0,1,.23.84l.21,2.77a1.16,1.16,0,0,1-.46,1.26.87.87,0,0,1-1.21-.26,1.73,1.73,0,0,1-.22-.84Z"/><path class="cls-14" d="M950.22,959.59a1.17,1.17,0,0,1-.06-1.34.86.86,0,0,1,1.21-.24,1.85,1.85,0,0,1,.53.69l1.28,2.47a1.19,1.19,0,0,1,.06,1.34.87.87,0,0,1-1.22.24,1.85,1.85,0,0,1-.53-.69Z"/><path class="cls-14" d="M950.15,963.17c.42.25.81.52.78,1.1a.89.89,0,0,1-.9.86,1.7,1.7,0,0,1-.81-.29l-2.4-1.39c-.42-.25-.81-.52-.78-1.1a.89.89,0,0,1,.9-.86,1.84,1.84,0,0,1,.82.29Z"/><path class="cls-14" d="M963.71,961.36a1.19,1.19,0,0,1,1.32-.21.89.89,0,0,1,.37,1.19,1.84,1.84,0,0,1-.63.61l-2.3,1.53c-.41.26-.82.5-1.33.21a.89.89,0,0,1-.36-1.19,1.79,1.79,0,0,1,.62-.61Z"/><path class="cls-15" d="M420.25,636.63c-2.61.66-6.6,3.62-8.9,5-2,1.21-4.93,2.9-8.12,2.21-1.39-.31-3.73-1.34-4-3s1.61-3.43,5.38-7.09c.82-.8,1.1-1,1.53-1.44,2-1.92,7.06-6.76,6.51-12.4-.3-3.05-2.26-6.66-5.62-8a9.36,9.36,0,0,0-6.39.07c-.63.21-2.35.83-5.09,3.43a27.57,27.57,0,0,0-6.86,9.67,21.46,21.46,0,0,0-2.05,9.91,19.21,19.21,0,0,0,2.45,8.56,16.41,16.41,0,0,0,5.76,6.13,16.69,16.69,0,0,0,6.49,2.21,21.29,21.29,0,0,0,8-.36c6-1.41,9.48-4.89,11.77-7.17,3.15-3.13,3.11-4.5,3-5.16a3.65,3.65,0,0,0-2.63-2.61A2.56,2.56,0,0,0,420.25,636.63Zm-25.46-2.71c-1.42-.82-.15-7,3.39-10.65,1.1-1.15,3.37-3.12,4.45-2.49s.28,4.29.21,4.55a11.3,11.3,0,0,1-2.32,4.22C399.46,630.85,396,634.66,394.79,633.92Z"/><rect class="cls-15" x="386.62" y="593.71" width="5.61" height="16.32" rx="2.76" transform="translate(-244.16 266.51) rotate(-29.2)"/><rect class="cls-15" x="398.91" y="589.92" width="5.61" height="16.32" rx="2.76" transform="translate(8.35 -5.52) rotate(0.8)"/><rect class="cls-15" x="377.55" y="601.86" width="5.61" height="16.32" rx="2.76" transform="matrix(-0.51, 0.86, -0.86, -0.51, 1099.09, 595.62)"/><rect class="cls-15" x="374.08" y="613.42" width="5.61" height="16.32" rx="2.76" transform="translate(1016.4 276.01) rotate(92.85)"/><rect class="cls-15" x="410.57" y="593.02" width="5.61" height="16.32" rx="2.76" transform="translate(340.08 -124.72) rotate(28.75)"/></svg>